<svg xmlns="http://www.w3.org/2000/svg" xmlns:xlink="http://www.w3.org/1999/xlink" width="24" height="16" viewBox="0 0 24 16"><defs><path id="68mka" d="M20 8.03h23.83V24H20z"/><path id="68mkc" d="M20 24h23.83V8.03H20z"/><path id="68mkd" d="M33.4 8.03h-2.97v6.49H20v3h10.43V24h2.97V17.5h10.43v-3H33.4V8.04"/><path id="68mke" d="M38.33 18.79l5.5 3.07V18.8h-5.5"/><path id="68mkf" d="M34.51 18.79l9.33 5.2v-1.47l-6.7-3.73h-2.63"/><path id="68mkg" d="M41.35 24l-6.84-3.82V24h6.84"/><path id="68mkh" d="M24.2 18.79L20 21.14v-2.35h4.2"/><path id="68mki" d="M29.33 19.45V24h-8.14l8.14-4.55"/><path id="68mkj" d="M26.69 18.79L20 22.52V24l9.33-5.21h-2.64"/><path id="68mkk" d="M25.5 13.24L20 10.17v3.07h5.5"/><path id="68mkl" d="M29.33 13.24L20 8.03V9.5l6.69 3.74h2.64"/><path id="68mkm" d="M22.48 8.03l6.84 3.82V8.03h-6.84"/><path id="68mkn" d="M40 13l4-2v2h-4"/><path id="68mko" d="M34 13V8h8l-8 5"/><path id="68mkp" d="M36.83 14L44 9.7V8l-10 6h2.83"/><clipPath id="68mkb"><use xlink:href="#68mka"/></clipPath></defs><g><g transform="translate(-20 -8)"><g><g/><g clip-path="url(#68mkb)"><use fill="#e8e6e1" xlink:href="#68mkc"/></g><g clip-path="url(#68mkb)"><use fill="#d92a38" xlink:href="#68mkd"/></g><g clip-path="url(#68mkb)"><use fill="#1c4b8e" xlink:href="#68mke"/></g><g clip-path="url(#68mkb)"><use fill="#1c4b8e" xlink:href="#68mkf"/></g><g clip-path="url(#68mkb)"><use fill="#1c4b8e" xlink:href="#68mkg"/></g><g clip-path="url(#68mkb)"><use fill="#e8e6e1" xlink:href="#68mkf"/></g><g clip-path="url(#68mkb)"><use fill="#d92a38" xlink:href="#68mkf"/></g><g clip-path="url(#68mkb)"><use fill="#1c4b8e" xlink:href="#68mkh"/></g><g clip-path="url(#68mkb)"><use fill="#1c4b8e" xlink:href="#68mki"/></g><g clip-path="url(#68mkb)"><use fill="#d92a38" xlink:href="#68mkj"/></g><g clip-path="url(#68mkb)"><use fill="#1c4b8e" xlink:href="#68mkk"/></g><g clip-path="url(#68mkb)"><use fill="#1c4b8e" xlink:href="#68mkl"/></g><g clip-path="url(#68mkb)"><use fill="#1c4b8e" xlink:href="#68mkm"/></g><g clip-path="url(#68mkb)"><use fill="#e8e6e1" xlink:href="#68mkl"/></g><g clip-path="url(#68mkb)"><use fill="#d92a38" xlink:href="#68mkl"/></g></g><g><use fill="#1c4b8e" xlink:href="#68mkn"/></g><g><use fill="#1c4b8e" xlink:href="#68mko"/></g><g><use fill="#d92a38" xlink:href="#68mkp"/></g></g></g></svg>